<svg xmlns="http://www.w3.org/2000/svg"  viewBox="0 0 64 64" width="50px" height="50px"><path d="M 13 6 C 9.1482075 6 6 9.1482075 6 13 L 6 22.832031 A 1.0001 1.0001 0 0 0 6 23.158203 L 6 51 C 6 54.851793 9.1482075 58 13 58 L 51 58 C 54.851793 58 58 54.851793 58 51 L 58 23.167969 A 1.0001 1.0001 0 0 0 58 22.841797 L 58 13 C 58 9.1482075 54.851793 6 51 6 L 13 6 z M 13 8 L 51 8 C 53.768207 8 56 10.231793 56 13 L 56 22 L 16 22 L 8 22 L 8 13 C 8 10.231793 10.231793 8 13 8 z M 12 12 C 11.448 12 11 12.448 11 13 L 11 15 C 11 15.552 11.448 16 12 16 C 12.552 16 13 15.552 13 15 L 13 13 C 13 12.448 12.552 12 12 12 z M 17 12 C 16.448 12 16 12.448 16 13 L 16 15 C 16 15.552 16.448 16 17 16 C 17.552 16 18 15.552 18 15 L 18 13 C 18 12.448 17.552 12 17 12 z M 22 12 C 21.448 12 21 12.448 21 13 L 21 15 C 21 15.552 21.448 16 22 16 C 22.552 16 23 15.552 23 15 L 23 13 C 23 12.448 22.552 12 22 12 z M 27 12 C 26.448 12 26 12.448 26 13 L 26 15 C 26 15.552 26.448 16 27 16 C 27.552 16 28 15.552 28 15 L 28 13 C 28 12.448 27.552 12 27 12 z M 32 12 C 31.448 12 31 12.448 31 13 L 31 15 C 31 15.552 31.448 16 32 16 C 32.552 16 33 15.552 33 15 L 33 13 C 33 12.448 32.552 12 32 12 z M 37 12 C 36.448 12 36 12.448 36 13 L 36 15 C 36 15.552 36.448 16 37 16 C 37.552 16 38 15.552 38 15 L 38 13 C 38 12.448 37.552 12 37 12 z M 42 12 C 41.448 12 41 12.448 41 13 L 41 15 C 41 15.552 41.448 16 42 16 C 42.552 16 43 15.552 43 15 L 43 13 C 43 12.448 42.552 12 42 12 z M 47 12 C 46.448 12 46 12.448 46 13 L 46 15 C 46 15.552 46.448 16 47 16 C 47.552 16 48 15.552 48 15 L 48 13 C 48 12.448 47.552 12 47 12 z M 52 12 C 51.448 12 51 12.448 51 13 L 51 15 C 51 15.552 51.448 16 52 16 C 52.552 16 53 15.552 53 15 L 53 13 C 53 12.448 52.552 12 52 12 z M 8 24 L 16 24 L 56 24 L 56 26 A 1 1 0 0 0 56 28 L 56 32 L 8 32 L 8 28 A 1 1 0 0 0 8 26 L 8 24 z M 12 26 A 1 1 0 0 0 12 28 A 1 1 0 0 0 12 26 z M 16 26 A 1 1 0 0 0 16 28 A 1 1 0 0 0 16 26 z M 20 26 A 1 1 0 0 0 20 28 A 1 1 0 0 0 20 26 z M 24 26 A 1 1 0 0 0 24 28 A 1 1 0 0 0 24 26 z M 28 26 A 1 1 0 0 0 28 28 A 1 1 0 0 0 28 26 z M 32 26 A 1 1 0 0 0 32 28 A 1 1 0 0 0 32 26 z M 36 26 A 1 1 0 0 0 36 28 A 1 1 0 0 0 36 26 z M 40 26 A 1 1 0 0 0 40 28 A 1 1 0 0 0 40 26 z M 44 26 A 1 1 0 0 0 44 28 A 1 1 0 0 0 44 26 z M 48 26 A 1 1 0 0 0 48 28 A 1 1 0 0 0 48 26 z M 52 26 A 1 1 0 0 0 52 28 A 1 1 0 0 0 52 26 z M 8 33 L 56 33 L 56 41 L 8 41 L 8 33 z M 8 42 L 56 42 L 56 50 L 8 50 L 8 42 z M 8 51 L 56 51 C 56 53.768207 53.768207 56 51 56 L 13 56 C 10.231793 56 8 53.768207 8 51 z"/></svg>